<svg t="1570802334571" class="icon" viewBox="0 0 1024 1024" version="1.1" xmlns="http://www.w3.org/2000/svg" p-id="4841" width="200" height="200"><path d="M0 0.3757h1021.478473v1021.492923H0z" fill="#769AFF" p-id="4842"></path><path d="M0 0.3757l1021.478473 1021.492923M0 1021.868623L1021.478473 0.3757" fill="#769AFF" p-id="4843"></path><path d="M642.389671 159.802667c-54.76554 0-104.459127 20.51179-145.894532 59.815819-41.652156-39.730304-90.543766-59.815819-145.865632-59.815819-132.116447 0-239.595625 115.087109-239.595626 256.531038 0 82.834686 36.941452 140.454103 64.035222 182.713159 63.421096 99.755648 194.670543 203.261074 267.267396 256.068637l3.366852 2.456502c14.450011 11.234883 31.862273 17.188288 50.372737 17.188288 17.433938 0 34.45605-5.657179 49.231186-16.335737l0.946476-0.700826c0.599675-0.455175 1.784576-1.322176 3.496903-2.564877 72.575178-52.923164 203.867974-156.551415 267.881521-256.299837 26.970945-42.071206 63.919622-99.690623 63.919622-182.525309 0-141.443929-107.291329-256.531038-239.162125-256.531038z" fill="#FFFFFF" p-id="4844"></path></svg>