<svg t="1570802396531" class="icon" viewBox="0 0 1024 1024" version="1.1" xmlns="http://www.w3.org/2000/svg" p-id="7857" width="200" height="200"><path d="M688 560c-124.8 0-224 99.2-224 224s99.2 224 224 224 224-99.2 224-224-99.2-224-224-224zM768 832h-96c-19.2 0-32-12.8-32-32v-64c0-19.2 12.8-32 32-32s32 12.8 32 32v32h64c19.2 0 32 12.8 32 32s-12.8 32-32 32z" p-id="7858" fill="#1296db"></path><path d="M416 784c0-150.4 121.6-272 272-272 73.6 0 144 28.8 192 80V192c0-89.6-70.4-160-160-160h-512c-54.4 0-96 41.6-96 96v768c0 54.4 41.6 96 96 96l300.8-3.2c-57.6-48-92.8-121.6-92.8-204.8zM284.8 224h179.2c16 0 28.8 12.8 28.8 32s-12.8 32-28.8 32H284.8C268.8 288 256 275.2 256 256s12.8-32 28.8-32zM256 448c0-19.2 12.8-32 32-32h368c19.2 0 32 12.8 32 32s-12.8 32-32 32H288c-19.2 0-32-12.8-32-32z" p-id="7859" fill="#1296db"></path></svg>