<svg t="1570802437140" class="icon" viewBox="0 0 1024 1024" version="1.1" xmlns="http://www.w3.org/2000/svg" p-id="8865" width="200" height="200"><path d="M522.016 586.467c86.709 0 178.496-207.314 178.496-318.803 0-98.385-80.089-178.459-178.496-178.459-98.407 0-178.476 80.071-178.476 178.459 0 111.509 91.749 318.803 178.476 318.803z" fill="#FFFFFF" p-id="8866"></path><path d="M809.227 878.286c0-121.837-75.854-232.618-186.481-275.301-30.734 28.741-65.25 43.792-100.727 43.792-36.316 0-70.992-14.781-101.311-42.992-111.682 42.133-188.277 152.565-188.277 274.499 0 15.854 88.682 57.44 288.402 57.44 199.739 0 288.402-41.627 288.402-57.44z" fill="#CFCF5A" p-id="8867"></path><path d="M544.684 145.597c0-0.006 0-0.023 0-0.039 0-7.916-6.414-14.331-14.331-14.331-0.007 0-0.025 0-0.042 0-78.937 0-143.191 64.238-143.191 143.193 0.020 7.935 6.455 14.356 14.389 14.356 2.629 0 5.095-0.705 7.215-1.938 4.245-2.499 7.097-7.121 7.097-12.411 0-0.002 0-0.004 0-0.007 0.079-63.198 51.297-114.409 114.486-114.471 0.019 0 0.031 0 0.047 0 7.916 0 14.331-6.414 14.331-14.331 0-0.004 0-0.007 0-0.021zM396.316 319.387c-2.591 2.615-4.192 6.215-4.192 10.19s1.6 7.575 4.193 10.191c2.714 2.734 6.324 4.177 10.19 4.177 0.053 0 0.115 0.001 0.178 0.001 3.872 0 7.375-1.6 9.875-4.176 2.659-2.593 4.313-6.206 4.317-10.202-0.039-3.993-1.705-7.61-4.366-10.212-2.595-2.441-6.16-3.969-10.086-3.969-3.915 0-7.474 1.518-10.121 4.001z" fill="#848D2F" p-id="8868"></path><path d="M658.59 555.99c61.25-83.82 99.381-208.699 99.381-288.323 0-130.077-105.884-235.898-235.936-235.898-130.077 0-235.898 105.826-235.898 235.898 0 79.718 38.189 204.795 99.538 288.615-109.61 47.484-188.337 150.557-206.59 269.248-2.583 15.909-4.059 34.258-4.061 52.94 0 44.739 47.093 72.155 107.602 88.885 83.019 22.977 191.306 25.773 238.24 25.773 43.364 0 139.152-2.363 218.973-20.854 69.471-16.091 126.835-44.383 126.835-93.972 0-25.188-2.791-49.964-7.986-74-23.664-109.341-98.385-203.135-200.091-248.316zM343.539 267.667c0-98.385 80.071-178.459 178.476-178.459 98.425 0 178.496 80.071 178.496 178.459 0 111.486-91.785 318.803-178.496 318.803-86.729 0-178.476-207.294-178.476-318.803zM232.446 878.286c0-121.914 76.597-232.345 188.277-274.499 30.323 28.212 64.997 42.992 101.311 42.992 35.476 0 69.977-15.053 100.727-43.792 110.627 42.683 186.481 153.444 186.481 275.301 0 15.838-88.662 57.44-288.381 57.44-199.739 0-288.421-41.609-288.421-57.44z" fill="#504C23" p-id="8869"></path></svg>